<svg width="512" height="512" viewBox="0 0 512 512" fill="none" xmlns="http://www.w3.org/2000/svg">
<rect width="512" height="512" rx="80" fill="#358A96"/>
<path d="M198.484 354V277.5H158.828L119.312 354H81.2031L126.906 266.953C103.094 255.703 91.1875 237.281 91.1875 211.688C91.1875 192.094 97.6094 176.859 110.453 165.984C123.391 155.016 141.391 149.438 164.453 149.25H234.062V354H198.484ZM126.625 213.234C126.625 224.766 129.859 233.766 136.328 240.234C142.797 246.703 152.5 249.938 165.438 249.938H198.484V177.938H165.438C152.312 177.938 142.562 181.078 136.188 187.359C129.812 193.641 126.625 202.266 126.625 213.234ZM351.625 275.109H311.969V354H276.391V149.25H348.391C372.016 149.25 390.25 154.547 403.094 165.141C415.938 175.734 422.359 191.062 422.359 211.125C422.359 224.812 419.031 236.297 412.375 245.578C405.812 254.766 396.625 261.844 384.812 266.812L430.797 352.172V354H392.688L351.625 275.109ZM311.969 246.562H348.531C360.531 246.562 369.906 243.562 376.656 237.562C383.406 231.469 386.781 223.172 386.781 212.672C386.781 201.703 383.641 193.219 377.359 187.219C371.172 181.219 361.891 178.125 349.516 177.938H311.969V246.562Z" fill="white"/>
</svg>
